<svg width="22" height="22" viewBox="0 0 22 22" fill="none" xmlns="http://www.w3.org/2000/svg">
<path d="M16.2469 0.357981C16.7242 -0.119327 17.498 -0.119327 17.9754 0.357981L21.642 4.02465C22.1193 4.50195 22.1193 5.27582 21.642 5.75313L10.642 16.7531C10.4128 16.9823 10.1019 17.1111 9.77778 17.1111H6.11111C5.4361 17.1111 4.88889 16.5639 4.88889 15.8889V12.2222C4.88889 11.8981 5.01766 11.5872 5.24687 11.358L16.2469 0.357981ZM7.33333 12.7285V14.6667H9.27152L19.0493 4.88889L17.1111 2.95071L7.33333 12.7285ZM0 4.88889C0 3.53886 1.09442 2.44444 2.44444 2.44444H8.55556C9.23057 2.44444 9.77778 2.99165 9.77778 3.66667C9.77778 4.34168 9.23057 4.88889 8.55556 4.88889H2.44444V19.5556H17.1111V13.4444C17.1111 12.7694 17.6583 12.2222 18.3333 12.2222C19.0083 12.2222 19.5556 12.7694 19.5556 13.4444V19.5556C19.5556 20.9056 18.4611 22 17.1111 22H2.44444C1.09442 22 0 20.9056 0 19.5556V4.88889Z" fill="#232323"/>
</svg>
