<svg width="26" height="26" viewBox="0 0 26 26" fill="none" xmlns="http://www.w3.org/2000/svg">
<path d="M13 3C7.47715 3 3 7.47715 3 13C3 18.5228 7.47715 23 13 23C18.5229 23 23 18.5228 23 13C23 7.47715 18.5229 3 13 3ZM0.5 13C0.5 6.09644 6.09644 0.5 13 0.5C19.9036 0.5 25.5 6.09644 25.5 13C25.5 19.9036 19.9036 25.5 13 25.5C6.09644 25.5 0.5 19.9036 0.5 13ZM18.8305 8.94074C19.3464 9.39939 19.3929 10.1895 18.9343 10.7055L12.2676 18.2055C12.0304 18.4723 11.6904 18.625 11.3333 18.625C10.9763 18.625 10.6363 18.4723 10.3991 18.2055L7.06574 14.4555C6.60709 13.9395 6.65357 13.1494 7.16955 12.6907C7.68552 12.2321 8.47562 12.2786 8.93426 12.7945L11.3333 15.4935L17.0657 9.04455C17.5244 8.52857 18.3145 8.48209 18.8305 8.94074Z" fill="#232323"/>
</svg>
