<svg width="22" height="22" viewBox="0 0 22 22" fill="none" xmlns="http://www.w3.org/2000/svg">
<path d="M5.5 2.2C5.5 0.984973 6.48497 0 7.7 0H14.3C15.515 0 16.5 0.984974 16.5 2.2V4.4H18.6886C18.6954 4.39994 18.7023 4.39994 18.7091 4.4H20.9C21.5075 4.4 22 4.89249 22 5.5C22 6.10751 21.5075 6.6 20.9 6.6H19.7242L18.7702 19.9567C18.6879 21.108 17.73 22 16.5758 22H5.42423C4.27003 22 3.31206 21.108 3.22982 19.9567L2.27577 6.6H1.1C0.492487 6.6 0 6.10751 0 5.5C0 4.89249 0.492487 4.4 1.1 4.4H3.29092C3.29774 4.39994 3.30455 4.39994 3.31135 4.4H5.5V2.2ZM7.7 4.4H14.3V2.2H7.7V4.4ZM4.48137 6.6L5.42423 19.8H16.5758L17.5186 6.6H4.48137ZM8.8 8.8C9.40751 8.8 9.9 9.29249 9.9 9.9V16.5C9.9 17.1075 9.40751 17.6 8.8 17.6C8.19249 17.6 7.7 17.1075 7.7 16.5V9.9C7.7 9.29249 8.19249 8.8 8.8 8.8ZM13.2 8.8C13.8075 8.8 14.3 9.29249 14.3 9.9V16.5C14.3 17.1075 13.8075 17.6 13.2 17.6C12.5925 17.6 12.1 17.1075 12.1 16.5V9.9C12.1 9.29249 12.5925 8.8 13.2 8.8Z" fill="#232323"/>
</svg>
