<svg width="26" height="26" viewBox="0 0 26 26" fill="none" xmlns="http://www.w3.org/2000/svg">
<path d="M13 2.6C7.25624 2.6 2.6 7.25624 2.6 13C2.6 18.7438 7.25624 23.4 13 23.4C18.7438 23.4 23.4 18.7438 23.4 13C23.4 7.25624 18.7438 2.6 13 2.6ZM0 13C0 5.8203 5.8203 0 13 0C20.1797 0 26 5.8203 26 13C26 20.1797 20.1797 26 13 26C5.8203 26 0 20.1797 0 13ZM7.53076 7.53076C8.03844 7.02308 8.86156 7.02308 9.36924 7.53076L13 11.1615L16.6308 7.53076C17.1384 7.02308 17.9616 7.02308 18.4692 7.53076C18.9769 8.03844 18.9769 8.86156 18.4692 9.36924L14.8385 13L18.4692 16.6308C18.9769 17.1384 18.9769 17.9616 18.4692 18.4692C17.9616 18.9769 17.1384 18.9769 16.6308 18.4692L13 14.8385L9.36924 18.4692C8.86156 18.9769 8.03844 18.9769 7.53076 18.4692C7.02308 17.9616 7.02308 17.1384 7.53076 16.6308L11.1615 13L7.53076 9.36924C7.02308 8.86156 7.02308 8.03844 7.53076 7.53076Z" fill="#232323"/>
</svg>
